<svg width="253" height="36" viewBox="0 0 253 36" fill="none" xmlns="http://www.w3.org/2000/svg">
<path d="M147.537 35.3746H169.592H170.446L152.78 16.8165L164.747 4.24494H148.505L144.231 8.7348H154.204L146.511 16.8165L160.694 30.955H147.537L141.011 23.701L129.416 35.3672L141.011 26.9936L147.537 35.3746Z" fill="#F4F4F4"/>
<path d="M133.94 0H112.998H112.149L129.695 17.5458L117.809 29.4317H133.94L138.185 25.1868H128.28L135.921 17.5458L123.469 5.09395H133.94L140.992 12.1019L153.184 0L140.992 8.98889L133.94 0Z" fill="#1B4B66"/>
<path d="M52.669 30.8765C51.8095 30.8765 51.0252 30.6723 50.3162 30.2641C49.6286 29.8344 49.0699 29.2757 48.6402 28.5881C48.232 27.8791 48.0278 27.0948 48.0278 26.2353V3.70874L52.669 4.27473V26.0097C52.669 26.0742 52.6797 26.1279 52.7012 26.1709C52.7442 26.1923 52.7979 26.2031 52.8624 26.2031L66.3346 24.5051C66.3991 24.5051 66.442 24.4944 66.4635 24.4729C66.5065 24.4299 66.528 24.3762 66.528 24.3117V5.8759L71.2336 6.4419V24.5373C71.2336 25.3968 71.0187 26.1811 70.589 26.8901C70.1593 27.5777 69.5899 28.1364 68.8808 28.5661C68.1932 28.9744 67.4304 29.1785 66.5925 29.1785L52.669 30.8765Z" fill="#1B4B66"/>
<path d="M74.6296 27.8753V6.71008L89.998 8.43786C90.7107 8.43786 91.3522 8.61629 91.9223 8.97315C92.5103 9.31217 92.9825 9.77609 93.3389 10.3649C93.6953 10.9537 93.8735 11.5961 93.8735 12.292V17.3773C93.8735 18.0731 93.6953 18.7155 93.3389 19.3043C92.9825 19.8753 92.5103 20.3392 91.9223 20.6961C91.3522 21.0351 90.7107 21.2046 89.998 21.2046L78.4784 20.36V27.3912L74.6296 27.8753ZM78.6388 16.4524L89.8109 17.3237C89.8643 17.3237 89.9 17.3148 89.9178 17.297C89.9534 17.2613 89.9712 17.2256 89.9712 17.1899V11.9685C89.9712 11.915 89.9534 11.8793 89.9178 11.8614C89.9 11.8257 89.8643 11.8079 89.8109 11.8079L78.6388 10.5642C78.5853 10.5642 78.5408 10.582 78.5051 10.6177C78.4873 10.6356 78.4784 10.6713 78.4784 10.7248V16.3186C78.4784 16.3543 78.4873 16.3899 78.5051 16.4256C78.5408 16.4435 78.5853 16.4524 78.6388 16.4524Z" fill="#1B4B66"/>
<path d="M97.2694 25.1495V9.32397L109.155 10.6794V13.301L99.8829 11.9456V15.8685H107.347V18.5082H99.8829V22.5278L109.155 21.0756V23.6973L97.2694 25.1495Z" fill="#1B4B66"/>
<path d="M120.56 22.461L117.546 18.8173H120.22L122.711 21.7787V22.2227L120.56 22.461ZM112.551 23.4292V11.1635L120.687 12.0348C121.065 12.0348 121.404 12.1292 121.706 12.3182C122.018 12.4977 122.268 12.7433 122.456 13.055C122.645 13.3667 122.739 13.7068 122.739 14.0752V16.961C122.739 17.3294 122.645 17.6695 122.456 17.9812C122.268 18.2835 122.018 18.5291 121.706 18.7181C121.404 18.8975 121.065 18.9873 120.687 18.9873L114.589 19.0015V23.1908L112.551 23.4292ZM114.674 16.9327H120.588C120.617 16.9327 120.636 16.928 120.645 16.9185C120.664 16.8996 120.673 16.8807 120.673 16.8619V14.1602C120.673 14.1319 120.664 14.113 120.645 14.1035C120.636 14.0846 120.617 14.0752 120.588 14.0752L114.674 13.2039C114.645 13.2039 114.622 13.2133 114.603 13.2322C114.594 13.2417 114.589 13.2605 114.589 13.2889V16.8619C114.589 16.8807 114.594 16.8996 114.603 16.9185C114.622 16.928 114.645 16.9327 114.674 16.9327Z" fill="#1B4B66"/>
<mask id="path-7-outside-1_2037_4966" maskUnits="userSpaceOnUse" x="127.28" y="6.07483" width="37" height="24" fill="black">
<rect fill="white" x="127.28" y="6.07483" width="37" height="24"/>
<path fill-rule="evenodd" clip-rule="evenodd" d="M128.28 7.07483H133.657L141.015 14.4328L145.543 9.9048H150.473L150.473 9.90466H160.575C161.045 9.90466 161.473 10.0252 161.858 10.2663C162.256 10.4953 162.575 10.8087 162.816 11.2064C163.058 11.5922 163.178 12.0261 163.178 12.5082V15.0033C163.178 15.16 163.166 15.3107 163.142 15.4553C163.118 15.5879 163.082 15.7205 163.033 15.8531C163.226 16.1062 163.383 16.3835 163.504 16.6848C163.624 16.9741 163.684 17.2694 163.684 17.5707V20.319C163.684 20.8011 163.564 21.2411 163.323 21.6388C163.082 22.0245 162.762 22.3379 162.364 22.579C161.979 22.808 161.545 22.9225 161.063 22.9225H154.055V20.3009H160.936C160.972 20.3009 160.996 20.2948 161.008 20.2828C161.033 20.2587 161.045 20.2286 161.045 20.1924V17.7154C161.045 17.6913 161.033 17.6672 161.008 17.6431C160.996 17.619 160.972 17.6069 160.936 17.6069H154.055V14.9852H160.43C160.454 14.9852 160.478 14.9792 160.502 14.9672C160.526 14.9431 160.538 14.9189 160.538 14.8948V12.6348C160.538 12.5986 160.526 12.5745 160.502 12.5625C160.478 12.5384 160.454 12.5263 160.43 12.5263H154.055H148.298L143.562 17.2627L155.731 29.4316H150.071L141.015 20.3757L137.902 23.4887H132.242L138.468 17.2627L128.28 7.07483Z"/>
</mask>
<path fill-rule="evenodd" clip-rule="evenodd" d="M128.28 7.07483H133.657L141.015 14.4328L145.543 9.9048H150.473L150.473 9.90466H160.575C161.045 9.90466 161.473 10.0252 161.858 10.2663C162.256 10.4953 162.575 10.8087 162.816 11.2064C163.058 11.5922 163.178 12.0261 163.178 12.5082V15.0033C163.178 15.16 163.166 15.3107 163.142 15.4553C163.118 15.5879 163.082 15.7205 163.033 15.8531C163.226 16.1062 163.383 16.3835 163.504 16.6848C163.624 16.9741 163.684 17.2694 163.684 17.5707V20.319C163.684 20.8011 163.564 21.2411 163.323 21.6388C163.082 22.0245 162.762 22.3379 162.364 22.579C161.979 22.808 161.545 22.9225 161.063 22.9225H154.055V20.3009H160.936C160.972 20.3009 160.996 20.2948 161.008 20.2828C161.033 20.2587 161.045 20.2286 161.045 20.1924V17.7154C161.045 17.6913 161.033 17.6672 161.008 17.6431C160.996 17.619 160.972 17.6069 160.936 17.6069H154.055V14.9852H160.43C160.454 14.9852 160.478 14.9792 160.502 14.9672C160.526 14.9431 160.538 14.9189 160.538 14.8948V12.6348C160.538 12.5986 160.526 12.5745 160.502 12.5625C160.478 12.5384 160.454 12.5263 160.43 12.5263H154.055H148.298L143.562 17.2627L155.731 29.4316H150.071L141.015 20.3757L137.902 23.4887H132.242L138.468 17.2627L128.28 7.07483Z" fill="#980000"/>
<path d="M133.657 7.07483L133.862 6.86945L133.777 6.78438H133.657V7.07483ZM128.28 7.07483V6.78438H127.579L128.075 7.2802L128.28 7.07483ZM141.015 14.4328L140.809 14.6381L141.015 14.8435L141.22 14.6381L141.015 14.4328ZM145.543 9.9048V9.61436H145.422L145.337 9.69943L145.543 9.9048ZM150.473 9.9048V10.1952H150.597L150.683 10.1055L150.473 9.9048ZM150.473 9.90466V9.61421H150.349L150.263 9.70397L150.473 9.90466ZM161.858 10.2663L161.704 10.5127L161.713 10.518L161.858 10.2663ZM162.816 11.2064L162.568 11.357L162.57 11.3604L162.816 11.2064ZM163.142 15.4553L163.428 15.5073L163.428 15.5031L163.142 15.4553ZM163.033 15.8531L162.761 15.7538L162.706 15.9029L162.802 16.0291L163.033 15.8531ZM163.504 16.6848L163.234 16.7927L163.235 16.7965L163.504 16.6848ZM163.323 21.6388L163.569 21.7928L163.571 21.7894L163.323 21.6388ZM162.364 22.579L162.513 22.8288L162.515 22.8274L162.364 22.579ZM154.055 22.9225H153.765V23.213H154.055V22.9225ZM154.055 20.3009V20.0104H153.765V20.3009H154.055ZM161.008 20.2828L161.214 20.4882L161.214 20.4882L161.008 20.2828ZM161.008 17.6431L160.749 17.773L160.77 17.8151L160.803 17.8484L161.008 17.6431ZM154.055 17.6069H153.765V17.8973H154.055V17.6069ZM154.055 14.9852V14.6948H153.765V14.9852H154.055ZM160.502 14.9672L160.632 15.2269L160.674 15.2059L160.708 15.1725L160.502 14.9672ZM160.502 12.5625L160.297 12.7679L160.33 12.8012L160.372 12.8223L160.502 12.5625ZM148.298 12.5263V12.2359H148.178L148.093 12.3209L148.298 12.5263ZM143.562 17.2627L143.356 17.0574L143.151 17.2627L143.356 17.4681L143.562 17.2627ZM155.731 29.4316V29.7221H156.432L155.936 29.2262L155.731 29.4316ZM150.071 29.4316L149.865 29.637L149.95 29.7221H150.071V29.4316ZM141.015 20.3757L141.22 20.1703L141.015 19.9649L140.809 20.1703L141.015 20.3757ZM137.902 23.4887V23.7791H138.022L138.107 23.694L137.902 23.4887ZM132.242 23.4887L132.036 23.2833L131.541 23.7791H132.242V23.4887ZM138.468 17.2627L138.673 17.4681L138.879 17.2627L138.673 17.0574L138.468 17.2627ZM133.657 6.78438H128.28V7.36527H133.657V6.78438ZM141.22 14.2274L133.862 6.86945L133.451 7.2802L140.809 14.6381L141.22 14.2274ZM145.337 9.69943L140.809 14.2274L141.22 14.6381L145.748 10.1102L145.337 9.69943ZM150.473 9.61436H145.543V10.1952H150.473V9.61436ZM150.263 9.70397L150.263 9.70412L150.683 10.1055L150.683 10.1053L150.263 9.70397ZM160.575 9.61421H150.473V10.1951H160.575V9.61421ZM162.012 10.02C161.579 9.74904 161.097 9.61421 160.575 9.61421V10.1951C160.992 10.1951 161.366 10.3013 161.704 10.5126L162.012 10.02ZM163.065 11.0559C162.799 10.6168 162.444 10.2684 162.003 10.0146L161.713 10.518C162.068 10.7222 162.352 11.0005 162.568 11.357L163.065 11.0559ZM163.469 12.5082C163.469 11.9751 163.334 11.4872 163.063 11.0525L162.57 11.3604C162.781 11.6971 162.888 12.0771 162.888 12.5082H163.469ZM163.469 15.0033V12.5082H162.888V15.0033H163.469ZM163.428 15.5031C163.455 15.3416 163.469 15.1749 163.469 15.0033H162.888C162.888 15.1451 162.877 15.2798 162.855 15.4076L163.428 15.5031ZM163.306 15.9524C163.36 15.8051 163.401 15.6567 163.428 15.5073L162.856 15.4034C162.835 15.5191 162.803 15.6359 162.761 15.7538L163.306 15.9524ZM163.773 16.5769C163.643 16.2517 163.474 15.9515 163.264 15.6771L162.802 16.0291C162.979 16.261 163.123 16.5152 163.234 16.7927L163.773 16.5769ZM163.975 17.5707C163.975 17.2295 163.906 16.8963 163.772 16.5731L163.235 16.7965C163.342 17.0518 163.394 17.3093 163.394 17.5707H163.975ZM163.975 20.319V17.5707H163.394V20.319H163.975ZM163.571 21.7894C163.841 21.3445 163.975 20.8521 163.975 20.319H163.394C163.394 20.7501 163.287 21.1376 163.074 21.4883L163.571 21.7894ZM162.515 22.8274C162.951 22.5633 163.303 22.2179 163.569 21.7928L163.076 21.4849C162.86 21.8312 162.574 22.1125 162.214 22.3306L162.515 22.8274ZM161.063 23.213C161.593 23.213 162.079 23.0864 162.513 22.8287L162.216 22.3293C161.879 22.5296 161.497 22.6321 161.063 22.6321V23.213ZM154.055 23.213H161.063V22.6321H154.055V23.213ZM153.765 20.3009V22.9225H154.345V20.3009H153.765ZM160.936 20.0104H154.055V20.5913H160.936V20.0104ZM160.803 20.0774C160.848 20.0329 160.894 20.0188 160.911 20.0146C160.93 20.0099 160.94 20.0104 160.936 20.0104V20.5913C160.968 20.5913 161.009 20.5889 161.052 20.5781C161.093 20.5678 161.157 20.5447 161.214 20.4882L160.803 20.0774ZM160.754 20.1924C160.754 20.1777 160.757 20.1572 160.766 20.1342C160.775 20.111 160.789 20.0918 160.803 20.0774L161.214 20.4882C161.296 20.406 161.335 20.3004 161.335 20.1924H160.754ZM160.754 17.7154V20.1924H161.335V17.7154H160.754ZM160.803 17.8484C160.796 17.8409 160.754 17.7955 160.754 17.7154H161.335C161.335 17.5871 161.27 17.4934 161.214 17.4377L160.803 17.8484ZM160.936 17.8973C160.924 17.8973 160.891 17.8955 160.851 17.8757C160.807 17.8536 160.771 17.8171 160.749 17.773L161.268 17.5132C161.19 17.3568 161.038 17.3165 160.936 17.3165V17.8973ZM154.055 17.8973H160.936V17.3165H154.055V17.8973ZM153.765 14.9852V17.6069H154.345V14.9852H153.765ZM160.43 14.6948H154.055V15.2757H160.43V14.6948ZM160.372 14.7074C160.384 14.7017 160.404 14.6948 160.43 14.6948V15.2757C160.504 15.2757 160.572 15.2568 160.632 15.2269L160.372 14.7074ZM160.248 14.8948C160.248 14.8147 160.289 14.7693 160.297 14.7618L160.708 15.1725C160.763 15.1168 160.829 15.0231 160.829 14.8948H160.248ZM160.248 12.6348V14.8948H160.829V12.6348H160.248ZM160.372 12.8223C160.328 12.8002 160.292 12.7636 160.27 12.7195C160.25 12.6799 160.248 12.6471 160.248 12.6348H160.829C160.829 12.5325 160.789 12.3809 160.632 12.3027L160.372 12.8223ZM160.43 12.8168C160.35 12.8168 160.304 12.7754 160.297 12.7679L160.708 12.3571C160.652 12.3013 160.558 12.2359 160.43 12.2359V12.8168ZM154.055 12.8168H160.43V12.2359H154.055V12.8168ZM148.298 12.8168H154.055V12.2359H148.298V12.8168ZM143.767 17.4681L148.504 12.7317L148.093 12.3209L143.356 17.0574L143.767 17.4681ZM155.936 29.2262L143.767 17.0574L143.356 17.4681L155.525 29.637L155.936 29.2262ZM150.071 29.7221H155.731V29.1412H150.071V29.7221ZM140.809 20.5811L149.865 29.637L150.276 29.2262L141.22 20.1703L140.809 20.5811ZM138.107 23.694L141.22 20.5811L140.809 20.1703L137.696 23.2833L138.107 23.694ZM132.242 23.7791H137.902V23.1982H132.242V23.7791ZM138.262 17.0574L132.036 23.2833L132.447 23.694L138.673 17.4681L138.262 17.0574ZM128.075 7.2802L138.262 17.4681L138.673 17.0574L128.485 6.86945L128.075 7.2802Z" fill="#F4F4F4" mask="url(#path-7-outside-1_2037_4966)"/>
<path d="M169.428 23.3845C168.883 23.3845 168.385 23.2551 167.936 22.9962C167.5 22.7237 167.145 22.3694 166.873 21.9334C166.614 21.4837 166.485 20.9864 166.485 20.4413V12.3863C166.485 11.8413 166.614 11.3508 166.873 10.9148C167.145 10.4651 167.5 10.1108 167.936 9.85195C168.385 9.57943 168.883 9.44318 169.428 9.44318L178.257 8.08777C178.789 8.08777 179.272 8.22403 179.708 8.49654C180.158 8.75543 180.519 9.1097 180.792 9.55935C181.064 9.99538 181.2 10.4859 181.2 11.0309V21.7968C181.2 22.3418 181.064 22.8391 180.792 23.2888C180.519 23.7248 180.158 24.0791 179.708 24.3516C179.272 24.6105 178.789 24.7399 178.257 24.7399L169.428 23.3845ZM169.55 20.4209L178.094 21.7763C178.135 21.7763 178.162 21.7695 178.175 21.7559C178.203 21.7286 178.216 21.6946 178.216 21.6537V11.174C178.216 11.1331 178.203 11.1059 178.175 11.0923C178.162 11.065 178.135 11.0514 178.094 11.0514L169.55 12.4068C169.509 12.4068 169.475 12.4204 169.448 12.4477C169.435 12.4613 169.428 12.4885 169.428 12.5294V20.2983C169.428 20.3391 169.435 20.3732 169.448 20.4005C169.475 20.4141 169.509 20.4209 169.55 20.4209Z" fill="#980000"/>
<path d="M187.852 26.2293C187.157 26.2293 186.516 26.06 185.928 25.7215C185.34 25.3651 184.877 24.9018 184.538 24.3317C184.2 23.7436 184.03 23.0933 184.03 22.3805V20.7502H187.879V22.1934C187.879 22.2469 187.888 22.2915 187.906 22.3271C187.941 22.3449 187.977 22.3538 188.013 22.3538L199.212 24.1933C199.247 24.1933 199.283 24.1844 199.318 24.1666C199.354 24.1309 199.372 24.0864 199.372 24.0329V18.4985C199.372 18.4629 199.354 18.4362 199.318 18.4183C199.283 18.3827 199.247 18.3649 199.212 18.3649H187.852C187.157 18.3649 186.516 18.1956 185.928 17.8571C185.34 17.5007 184.877 17.0285 184.538 16.4405C184.2 15.8525 184.03 15.211 184.03 14.5161V10.5438C184.03 9.83107 184.2 9.18961 184.538 8.61943C184.877 8.03142 185.34 7.56815 185.928 7.2296C186.516 6.87323 187.157 6.69505 187.852 6.69505L199.425 5.04919C200.12 5.04919 200.753 5.22738 201.323 5.58374C201.911 5.92229 202.383 6.38557 202.74 6.97358C203.096 7.54376 203.274 8.18522 203.274 8.89796V10.5283H199.372V9.08505C199.372 9.03159 199.354 8.99596 199.318 8.97814C199.283 8.9425 199.247 8.92468 199.212 8.92468L188.013 10.5705C187.977 10.5705 187.941 10.5884 187.906 10.624C187.888 10.6418 187.879 10.6774 187.879 10.7309V14.329C187.879 14.3647 187.888 14.4003 187.906 14.4359C187.941 14.4537 187.977 14.4627 188.013 14.4627H199.425C200.12 14.4627 200.753 14.6408 201.323 14.9972C201.911 15.3358 202.383 15.799 202.74 16.387C203.096 16.975 203.274 17.6165 203.274 18.3114V24.22C203.274 24.9328 203.096 25.5831 202.74 26.1711C202.383 26.7413 201.911 27.2046 201.323 27.561C200.753 27.8995 200.12 28.0688 199.425 28.0688L187.852 26.2293Z" fill="#980000"/>
<path d="M211.388 29.9009C210.427 29.9009 209.54 29.6669 208.727 29.1989C207.915 28.7063 207.274 28.0659 206.806 27.2777C206.338 26.4648 206.104 25.5658 206.104 24.5805V22.3268H211.425V24.3219C211.425 24.3958 211.437 24.4574 211.461 24.5067C211.511 24.5313 211.56 24.5436 211.609 24.5436L227.09 27.0608C227.139 27.0608 227.189 27.0485 227.238 27.0238C227.287 26.9746 227.312 26.913 227.312 26.8391V19.3851C227.312 19.3358 227.287 19.2989 227.238 19.2742C227.189 19.225 227.139 19.2003 227.09 19.2003H211.388C210.427 19.2003 209.54 18.9663 208.727 18.4983C207.915 18.0057 207.274 17.353 206.806 16.5402C206.338 15.7273 206.104 14.8406 206.104 13.88V8.52269C206.104 7.53744 206.338 6.65071 206.806 5.86252C207.274 5.04968 207.915 4.40927 208.727 3.94128C209.54 3.44865 210.427 3.20234 211.388 3.20234L227.386 0.878784C228.346 0.878784 229.221 1.1251 230.009 1.61772C230.822 2.08571 231.474 2.72613 231.967 3.53896C232.46 4.32716 232.706 5.21388 232.706 6.19913V8.45289H227.312V6.45776C227.312 6.38387 227.287 6.3346 227.238 6.30997C227.189 6.26071 227.139 6.23608 227.09 6.23608L211.609 8.55964C211.56 8.55964 211.511 8.58427 211.461 8.63353C211.437 8.65816 211.425 8.70742 211.425 8.78132V13.6214C211.425 13.6706 211.437 13.7199 211.461 13.7691C211.511 13.7938 211.56 13.8061 211.609 13.8061H227.386C228.346 13.8061 229.221 14.0524 230.009 14.545C230.822 15.013 231.474 15.6534 231.967 16.4663C232.46 17.2791 232.706 18.1658 232.706 19.1264V27.0977C232.706 28.083 232.46 28.982 231.967 29.7949C231.474 30.5831 230.822 31.2235 230.009 31.7161C229.221 32.1841 228.346 32.4181 227.386 32.4181L211.388 29.9009Z" fill="#980000"/>
<path d="M25.1278 33.632C24.249 33.632 23.4377 33.3731 22.694 32.8553C21.9504 32.3103 21.3645 31.6018 20.9363 30.7297C20.5081 29.8304 20.2941 27.1377 20.2941 26.0477V23.5542H25.1616V27.4595C25.1616 27.5413 25.1729 27.6094 25.1954 27.6639C25.2405 27.6912 25.2856 27.7048 25.3306 27.7048L39.4939 26.0068C39.5389 26.0068 39.584 25.9932 39.6291 25.9659C39.6741 25.9114 39.6967 25.8433 39.6967 25.7615V20.4066C39.6967 20.3521 39.6741 20.3112 39.6291 20.284C39.584 20.2295 39.5389 20.2022 39.4939 20.2022H25.1278C24.249 20.2022 23.4377 19.9433 22.694 19.4255C21.9504 18.8805 21.3645 18.1583 20.9363 17.259C20.5081 16.3597 20.2941 15.3787 20.2941 14.3159V8.38865C20.2941 7.29858 20.5081 4.61954 20.9363 3.74749C21.3645 2.84819 21.9504 2.13965 22.694 1.62187C23.4377 1.07684 24.249 0.804321 25.1278 0.804321L39.7643 2.5023C40.6431 2.5023 41.4431 2.77482 42.1643 3.31985C42.9079 3.83763 43.5051 4.54617 43.9558 5.44548C44.4065 6.31753 44.6318 7.29858 44.6318 8.38865V10.8822H39.6967V8.67479C39.6967 8.59303 39.6741 8.53853 39.6291 8.51128C39.584 8.45678 39.5389 8.42952 39.4939 8.42952L25.3306 6.73154C25.2856 6.73154 25.2405 6.75879 25.1954 6.8133C25.1729 6.84055 25.1616 6.89505 25.1616 6.97681V14.0297C25.1616 14.0842 25.1729 14.1387 25.1954 14.1932C25.2405 14.2205 25.2856 14.2341 25.3306 14.2341H39.7643C40.6431 14.2341 41.4431 14.5066 42.1643 15.0517C42.9079 15.5694 43.5051 16.278 43.9558 17.1773C44.4065 18.0766 44.6318 19.0576 44.6318 20.1205V26.0477C44.6318 27.1377 44.4065 28.1324 43.9558 29.0317C43.5051 29.9038 42.9079 30.6123 42.1643 31.1573C41.4431 31.6751 40.6431 31.934 39.7643 31.934L25.1278 33.632Z" fill="#1B4B66"/>
</svg>
